<?xml version="1.0" standalone="no"?>
<!DOCTYPE svg PUBLIC "-//W3C//DTD SVG 20010904//EN"
 "http://www.w3.org/TR/2001/REC-SVG-20010904/DTD/svg10.dtd">
<svg version="1.0" xmlns="http://www.w3.org/2000/svg"
 width="120.000000pt" height="80.000000pt" viewBox="0 0 120.000000 80.000000"
 preserveAspectRatio="xMidYMid meet">

<g transform="translate(0.000000,80.000000) scale(0.100000,-0.100000)"
fill="#000000" stroke="none">
<path d="M606 745 c-16 -12 -57 -15 -195 -16 -190 -1 -223 -7 -270 -52 -34
-32 -32 -25 -66 -177 -61 -268 -74 -346 -64 -384 17 -60 34 -66 207 -66 181 0
214 11 257 84 19 33 44 122 45 164 0 1 11 2 25 2 21 0 25 -5 25 -28 0 -41 -28
-130 -56 -178 -28 -50 -19 -58 51 -45 88 16 119 53 144 169 l16 77 160 5 c173
5 206 15 246 70 24 33 58 169 62 243 2 55 0 60 -31 88 l-32 29 -178 0 c-272
-1 -297 -19 -332 -237 l-12 -73 -56 0 c-61 0 -125 -24 -155 -57 -9 -11 -24
-53 -33 -94 -24 -119 -13 -109 -115 -109 -76 0 -89 2 -89 16 0 33 83 419 93
432 8 10 44 12 142 10 128 -3 133 -2 172 24 22 14 47 42 56 61 27 56 21 71
-17 42z m440 -157 c-3 -13 -13 -56 -23 -95 l-17 -73 -123 0 c-142 0 -133 -10
-106 112 l16 78 130 0 c129 0 129 0 123 -22z"/>
</g>
</svg>
